<svg xmlns="http://www.w3.org/2000/svg" width="35.572" height="50" viewBox="0 0 35.572 50">
  <g id="Boxes_Container" data-name="Boxes Container" transform="translate(-899.087 -328.398)">
    <rect id="Rectangle_22" data-name="Rectangle 22" width="35" height="50" transform="translate(899.486 328.398)" fill="none"/>
    <g id="Boxes" transform="translate(-1 -7.788)">
      <path id="Path_7" data-name="Path 7" d="M0,0,18.423,1.284l1.711,26.088L1.711,26.088Z" transform="matrix(0.839, 0.545, -0.545, 0.839, 914.995, 348.841)" fill="#242424"/>
      <g id="Subtraction_11" data-name="Subtraction 11" transform="translate(915.251 343.702)" fill="none">
        <path d="M13.559,31.449a12.606,12.606,0,0,1-9.588-4.606A16.969,16.969,0,0,1,0,15.725,16.971,16.971,0,0,1,3.971,4.606,12.606,12.606,0,0,1,13.559,0,11.85,11.85,0,0,1,17.59.707V30.743A11.849,11.849,0,0,1,13.559,31.449Z" stroke="none"/>
        <path d="M 13.55893135070801 30.44919776916504 C 14.58638954162598 30.44919776916504 15.60294437408447 30.30400657653809 16.58980178833008 30.01692390441895 L 16.58980178833008 1.432258367538452 C 15.60297107696533 1.145179986953735 14.58642196655273 0.9999979138374329 13.55893135070801 0.9999979138374329 C 10.23258113861084 0.9999979138374329 7.096580982208252 2.512428045272827 4.728600978851318 5.258687973022461 C 2.324180841445923 8.04722785949707 1.000000953674316 11.76422786712646 1.000000953674316 15.72497749328613 C 1.000000953674316 19.68539810180664 2.324170827865601 23.40214729309082 4.728590965270996 26.19058799743652 C 7.096601009368896 28.93679809570313 10.23261070251465 30.44919776916504 13.55893135070801 30.44919776916504 M 13.55893135070801 31.44919776916504 C 9.93717098236084 31.44919776916504 6.532200813293457 29.81356811523438 3.971260786056519 26.84361839294434 C 1.410350918769836 23.87369728088379 8.941650548877078e-07 19.92502784729004 8.941650548877078e-07 15.72497749328613 C 8.941650548877078e-07 11.52459812164307 1.410350918769836 7.575687885284424 3.971260786056519 4.605668067932129 C 6.53217077255249 1.635657906532288 9.937130928039551 -2.069091806333745e-06 13.55893135070801 -2.069091806333745e-06 C 14.93337059020996 -2.069091806333745e-06 16.28955078125 0.2377379238605499 17.58980178833008 0.7066279053688049 L 17.58980178833008 30.74256706237793 C 16.28875160217285 31.21172714233398 14.93274116516113 31.44919776916504 13.55893135070801 31.44919776916504 Z" stroke="none" fill="#fff"/>
      </g>
      <g id="Subtraction_12" data-name="Subtraction 12" transform="matrix(1, -0.017, 0.017, 1, 904.977, 342.278)" fill="none">
        <path d="M29.286,42.517h0L0,41.945l.38-24.32L10.647.006l19.3.376-.659,42.134Z" stroke="none"/>
        <path d="M 27.31762886047363 40.47700881958008 L 27.91389274597168 2.342330932617188 L 11.78311443328857 2.028349161148071 L 2.371837377548218 18.17990493774414 L 2.030908346176147 39.9840202331543 L 27.31762886047363 40.47700881958008 M 29.28598022460938 42.51677322387695 L 29.28499984741211 42.51574325561523 L 6.652832098552608e-07 41.94480514526367 L 0.3802606761455536 17.62527465820313 L 10.64684104919434 0.00585439195856452 L 29.94480133056641 0.3814843893051147 L 29.28600120544434 42.51576614379883 L 29.28598022460938 42.51677322387695 Z" stroke="none" fill="#242424"/>
      </g>
      <g id="Path_10" data-name="Path 10" transform="matrix(0.839, 0.545, -0.545, 0.839, 917.595, 348.912)" fill="none">
        <path d="M0,0,17.6,1.232l1.635,25.041-17.6-1.232Z" stroke="none"/>
        <path d="M 1.072488784790039 1.07750129699707 L 2.576183319091797 24.1042652130127 L 18.16637229919434 25.19535255432129 L 16.66267776489258 2.1685791015625 L 1.072488784790039 1.07750129699707 M 0 -3.814697265625e-06 L 17.60364151000977 1.231986999511719 L 19.23886108398438 26.27285766601563 L 1.635221481323242 25.04085731506348 L 0 -3.814697265625e-06 Z" stroke="none" fill="#fff"/>
      </g>
      <g id="Ellipse_12" data-name="Ellipse 12" transform="translate(917.486 347.186)" fill="none" stroke="#242424" stroke-width="1">
        <circle cx="7.5" cy="7.5" r="7.5" stroke="none"/>
        <circle cx="7.5" cy="7.5" r="7" fill="none"/>
      </g>
      <g id="Ellipse_13" data-name="Ellipse 13" transform="translate(918.486 349.186)" fill="#242424" stroke="#242424" stroke-width="1">
        <circle cx="4" cy="4" r="4" stroke="none"/>
        <circle cx="4" cy="4" r="3.5" fill="none"/>
      </g>
    </g>
  </g>
</svg>
