<svg xmlns="http://www.w3.org/2000/svg" width="35" height="50" viewBox="0 0 35 50">
  <g id="House_Container" data-name="House Container" transform="translate(-1103 -41)">
    <rect id="Rectangle_15" data-name="Rectangle 15" width="35" height="50" transform="translate(1103 41)" fill="none"/>
    <g id="House" transform="translate(81.942 -50)">
      <path id="Union_1" data-name="Union 1" d="M0,48.29V22.014L14.2,0l14.2,22.014V48.29Z" transform="translate(1025 91)" fill="#242424"/>
      <g id="Subtraction_4" data-name="Subtraction 4" transform="translate(1033.522 95.52)" fill="none">
        <path d="M20.594,44.48H11.538A24.149,24.149,0,0,1,20.594,0Z" stroke="none"/>
        <path d="M 11.82342720031738 43.4803352355957 L 19.59409141540527 43.4797248840332 L 19.59410095214844 1.188024997711182 C 14.6045503616333 2.18444037437439 10.0543384552002 4.821626663208008 6.681580543518066 8.694916725158691 C 4.886070251464844 10.75759696960449 3.483760356903076 13.09255695343018 2.513530492782593 15.63506698608398 C 1.509230494499207 18.26587677001953 1.000000476837158 21.04176712036133 1.000000476837158 23.88561630249023 C 1.000000476837158 26.72927665710449 1.509230494499207 29.50539779663086 2.513550519943237 32.13685607910156 C 3.483840465545654 34.6789665222168 4.886170387268066 37.01374816894531 6.681520462036133 39.07625579833984 C 8.174046516418457 40.79056930541992 9.902951240539551 42.27120971679688 11.82342720031738 43.4803352355957 M 20.59409141540527 44.4803581237793 L 20.59267044067383 44.4803581237793 L 20.59267044067383 44.47964859008789 L 11.53816032409668 44.4803581237793 C 9.435540199279785 43.19153594970703 7.547900676727295 41.59429550170898 5.927310466766357 39.73288726806641 C 4.054510593414307 37.58140563964844 2.591620445251465 35.14570617675781 1.579290509223938 32.49344635009766 C 0.5313504934310913 29.7476863861084 4.760742058351752e-07 26.85159683227539 4.760742058351752e-07 23.88561630249023 C 4.760742058351752e-07 20.91940689086914 0.5313504934310913 18.02353668212891 1.579290509223938 15.27842712402344 C 2.591500520706177 12.62589740753174 4.054380416870117 10.18997669219971 5.927310466766357 8.038347244262695 C 9.713210105895996 3.690607070922852 14.92198085784912 0.835867166519165 20.59410095214844 -2.845458993760985e-06 L 20.59409141540527 44.4803581237793 Z" stroke="none" fill="#fff"/>
      </g>
      <g id="Subtraction_1" data-name="Subtraction 1" transform="translate(1048.435 119.406)" fill="none">
        <path d="M4.971,9.942A4.971,4.971,0,1,1,4.971,0a5.031,5.031,0,0,1,.71.05V9.892A5.03,5.03,0,0,1,4.971,9.942Z" stroke="none"/>
        <path d="M 4.681239604949951 8.931850433349609 L 4.681239604949951 1.010475397109985 C 2.626271963119507 1.159353852272034 0.9999998211860657 2.878883123397827 0.9999998211860657 4.971162796020508 C 0.9999998211860657 7.063442230224609 2.626271963119507 8.782971382141113 4.681239604949951 8.931850433349609 M 4.971159934997559 9.942322731018066 C 2.230059862136841 9.942322731018066 -1.975250256691652e-07 7.712262630462646 -1.975250256691652e-07 4.971162796020508 C -1.975250256691652e-07 2.230052709579468 2.230059862136841 2.796020453388337e-06 4.971159934997559 2.796020453388337e-06 C 5.208769798278809 2.796020453388337e-06 5.447669982910156 0.01694279536604881 5.681239604949951 0.0503527969121933 L 5.681239604949951 9.891963005065918 C 5.445919990539551 9.925612449645996 5.20721960067749 9.942322731018066 4.971159934997559 9.942322731018066 Z" stroke="none" fill="#fff"/>
      </g>
      <g id="Subtraction_5" data-name="Subtraction 5" transform="translate(1041.333 119.406)" fill="none">
        <path d="M12.783,20.594H4.733a11.549,11.549,0,0,1-1.405-1.2A11.362,11.362,0,0,1,11.362,0a11.431,11.431,0,0,1,1.42.088V20.593Z" stroke="none"/>
        <path d="M 11.78263568878174 19.59409713745117 L 11.78263568878174 1.008387565612793 C 11.64276790618896 1.002802491188049 11.50259685516357 0.999997615814209 11.36247539520264 0.999997615814209 C 8.594505310058594 0.999997615814209 5.992245674133301 2.07786750793457 4.035065650939941 4.035067558288574 C 2.077865362167358 5.992257595062256 0.9999954700469971 8.594517707824707 0.9999954700469971 11.36247730255127 C 0.9999954700469971 14.13043785095215 2.077865362167358 16.73269844055176 4.035065650939941 18.68988800048828 C 4.358644008636475 19.01346588134766 4.704006671905518 19.31668281555176 5.064766407012939 19.59409713745117 L 11.78263568878174 19.59409713745117 M 12.78263568878174 20.59409713745117 L 12.78192520141602 20.59409713745117 L 4.73343563079834 20.59409713745117 C 4.236905574798584 20.23593711853027 3.764185428619385 19.83322715759277 3.327955484390259 19.39699745178223 C 1.18189549446106 17.25093841552734 -4.539795099844923e-06 14.39755725860596 -4.539795099844923e-06 11.36247730255127 C -4.539795099844923e-06 8.327397346496582 1.18189549446106 5.47401762008667 3.327955484390259 3.327957630157471 C 5.474015235900879 1.181887626647949 8.327395439147949 -2.384948629696737e-06 11.36247539520264 -2.384948629696737e-06 C 11.83918571472168 -2.384948629696737e-06 12.31699562072754 0.029677614569664 12.78263568878174 0.08819761872291565 L 12.78263568878174 20.59338760375977 L 12.78263568878174 20.59409713745117 Z" stroke="none" fill="#fff"/>
      </g>
      <g id="Ellipse_4" data-name="Ellipse 4" transform="translate(1043.058 99)" fill="none" stroke="#242424" stroke-width="1">
        <circle cx="5" cy="5" r="5" stroke="none"/>
        <circle cx="5" cy="5" r="4.5" fill="none"/>
      </g>
    </g>
  </g>
</svg>
