<svg xmlns="http://www.w3.org/2000/svg" width="35" height="50.483" viewBox="0 0 35 50.483">
  <g id="Person_Container" data-name="Person Container" transform="translate(-1072 -40.517)">
    <g id="Person" transform="translate(10 1.545)">
      <path id="Union_2" data-name="Union 2" d="M25,31.649H0V12.089L13.53,0h.106V10.058L24.894,0H25V31.649Z" transform="translate(1068 56.284)" fill="#242424"/>
      <g id="Subtraction_9" data-name="Subtraction 9" transform="translate(1089.299 60.884)" fill="none">
        <path d="M4.7,19.248h0c-.1-.086-.2-.173-.289-.258A12.671,12.671,0,0,1,0,9.483,12.8,12.8,0,0,1,4.7,0V19.248Z" stroke="none"/>
        <path d="M 3.700793266296387 16.79762268066406 L 3.700793266296387 2.446695804595947 C 1.978377223014832 4.535885334014893 1.033534049987793 6.975692749023438 1.000873327255249 9.49606990814209 C 0.967225968837738 12.09312534332275 1.914758205413818 14.62887954711914 3.700793266296387 16.79762268066406 M 4.700793266296387 19.24779891967773 L 4.699133396148682 19.2463493347168 C 4.600063323974609 19.16009902954102 4.502813339233398 19.07341957092285 4.410093307495117 18.98873901367188 C 1.521573305130005 16.35070037841797 -0.04428673163056374 12.97486972808838 0.0009532691910862923 9.483109474182129 C 0.04665327072143555 5.956619262695313 1.715763211250305 2.588789463043213 4.700793266296387 -5.401611247179972e-07 L 4.700793266296387 19.24560928344727 L 4.700793266296387 19.24779891967773 Z" stroke="none" fill="#fff"/>
      </g>
      <g id="Subtraction_10" data-name="Subtraction 10" transform="translate(1082.222 58.721)" fill="none">
        <path d="M11.778,30.539h0A22.628,22.628,0,0,1,5.582,26.55a17.614,17.614,0,0,1-4.4-6.052A14.151,14.151,0,0,1,.033,13.9,15.2,15.2,0,0,1,7,2.456,21.3,21.3,0,0,1,11.778,0V30.539Z" stroke="none"/>
        <path d="M 10.77799987792969 28.95184135437012 L 10.77800941467285 1.48270308971405 C 9.634811401367188 1.991233348846436 8.558303833007813 2.592581748962402 7.564269542694092 3.278628587722778 C 3.639019727706909 5.987268447875977 1.318599820137024 9.783758163452148 1.030449748039246 13.96872901916504 C 0.8876097798347473 16.0434684753418 1.248879790306091 18.10776901245117 2.104229688644409 20.10426902770996 C 2.998559713363647 22.19169807434082 4.395679950714111 24.11198806762695 6.256739616394043 25.81175804138184 C 7.589216709136963 27.02861404418945 9.105290412902832 28.08108711242676 10.77799987792969 28.95184135437012 M 11.77799987792969 30.53859901428223 L 11.7765998840332 30.53796768188477 C 9.442339897155762 29.51369857788086 7.358319759368896 28.17199897766113 5.582399845123291 26.55017852783203 C 3.615359783172607 24.75360870361328 2.135869741439819 22.71737861633301 1.185039758682251 20.49807929992676 C 0.266639769077301 18.35441780090332 -0.12103021889925 16.13451766967773 0.032809779047966 13.90003871917725 C 0.3422997891902924 9.405088424682617 2.815319776535034 5.340688705444336 6.996309757232666 2.455568552017212 C 8.440999984741211 1.458498597145081 10.04979991912842 0.6323285698890686 11.77800941467285 -1.446533246962645e-06 L 11.77799987792969 30.53706932067871 L 11.77799987792969 30.53859901428223 Z" stroke="none" fill="#fff"/>
      </g>
      <g id="Group_2" data-name="Group 2" transform="translate(1076.768 39.455)">
        <path id="Path_1" data-name="Path 1" d="M.946,12.7C-3.909-.9,11.3-4.946,15.35,7.354" transform="translate(9.023 19.881) rotate(-126)" fill="none" stroke="#242424" stroke-width="1"/>
        <path id="Path_2" data-name="Path 2" d="M.674,9.041C-2.784-.641,8.05-3.522,10.932,5.237" transform="translate(8.02 15.883) rotate(-126)" fill="none" stroke="#242424" stroke-width="1"/>
        <circle id="Ellipse_10" data-name="Ellipse 10" cx="3" cy="3" r="3" transform="translate(14.232 7.545)" fill="#242424"/>
        <g id="Ellipse_11" data-name="Ellipse 11" transform="translate(5.232 1.545)" fill="#fff" stroke="#242424" stroke-width="1">
          <circle cx="2.5" cy="2.5" r="2.5" stroke="none"/>
          <circle cx="2.5" cy="2.5" r="2" fill="none"/>
        </g>
      </g>
    </g>
    <rect id="Rectangle_16" data-name="Rectangle 16" width="35" height="50" transform="translate(1072 41)" fill="none"/>
  </g>
</svg>
