<svg xmlns="http://www.w3.org/2000/svg" width="35" height="50" viewBox="0 0 35 50">
  <g id="Portfolio_Container" data-name="Portfolio Container" transform="translate(-1344 -96)">
    <g id="Portfolio">
      <rect id="Rectangle_25" data-name="Rectangle 25" width="26" height="2" transform="translate(1349 143)" fill="#242424"/>
      <rect id="Rectangle_24" data-name="Rectangle 24" width="5" height="46" transform="translate(1370 99)" fill="#242424"/>
      <rect id="Rectangle_27" data-name="Rectangle 27" width="26" height="2" transform="translate(1349 99)" fill="#242424"/>
      <rect id="Rectangle_28" data-name="Rectangle 28" width="26" height="12" transform="translate(1349 116)" fill="#242424"/>
      <rect id="Rectangle_29" data-name="Rectangle 29" width="5" height="46" transform="translate(1349 99)" fill="#242424"/>
      <g id="Subtraction_15" data-name="Subtraction 15" transform="translate(1353 111)" fill="none">
        <path d="M14,34A14,14,0,1,1,22,8.509V31.491A13.914,13.914,0,0,1,14,34Z" stroke="none"/>
        <path d="M 14.00039196014404 33.00020217895508 C 16.50163269042969 33.00020217895508 18.91049385070801 32.29533004760742 20.99959182739258 30.95695114135742 L 20.99961090087891 9.043274879455566 C 18.91055107116699 7.705052852630615 16.50171661376953 7.000301837921143 14.00039196014404 7.000301837921143 C 10.52761173248291 7.000301837921143 7.262841701507568 8.352461814880371 4.80748176574707 10.80770206451416 C 2.352191686630249 13.26289176940918 1.000001668930054 16.52738189697266 1.000001668930054 19.99980163574219 C 1.000001668930054 23.47229194641113 2.352201700210571 26.73695182800293 4.807511806488037 29.19238090515137 C 7.262921810150146 31.64789199829102 10.52768135070801 33.00020217895508 14.00039196014404 33.00020217895508 M 14.00039196014404 34.00020217895508 C 10.2605619430542 34.00020217895508 6.744671821594238 32.54386138916016 4.100391864776611 29.89947128295898 C 1.456211686134338 27.25516128540039 1.635742137295892e-06 23.7393913269043 1.635742137295892e-06 19.99980163574219 C 1.635742137295892e-06 16.26026153564453 1.456211686134338 12.74465179443359 4.100391864776611 10.10058212280273 C 6.744621753692627 7.45648193359375 10.26051139831543 6.000301837921143 14.00039196014404 6.000301837921143 C 16.87997245788574 6.000301837921143 19.64606094360352 6.867861747741699 21.99961090087891 8.509202003479004 L 21.99959182739258 31.49099159240723 C 19.64558219909668 33.1328125 16.87964248657227 34.00020217895508 14.00039196014404 34.00020217895508 Z" stroke="none" fill="#242424"/>
      </g>
      <g id="Subtraction_14" data-name="Subtraction 14" transform="translate(1353.03 111)" fill="none">
        <path d="M15.47,30A15.181,15.181,0,0,1,4.835,25.639,16.15,16.15,0,0,1,0,15H21.97v13.53A14.974,14.974,0,0,1,15.47,30Z" stroke="none"/>
        <path d="M 15.47010040283203 29.00060081481934 C 17.37993812561035 29.00060081481934 19.22695159912109 28.62563133239746 20.96990013122559 27.88497352600098 L 20.96990013122559 16.00029945373535 L 1.097975730895996 16.00029945373535 C 1.536378264427185 19.40574645996094 3.088250637054443 22.54205513000488 5.532579898834229 24.92288970947266 C 8.231969833374023 27.55244064331055 11.76119041442871 29.00060081481934 15.47010040283203 29.00060081481934 M 15.47010040283203 30.00060081481934 C 11.49901008605957 30.00060081481934 7.72199010848999 28.45169067382813 4.834800243377686 25.63920021057129 C 1.960070013999939 22.83914947509766 0.243040069937706 19.06085014343262 6.561279519701202e-08 15.00030040740967 L 21.96990013122559 15.00030040740967 L 21.96990013122559 28.53076934814453 C 19.92564964294434 29.50638008117676 17.73899078369141 30.00060081481934 15.47010040283203 30.00060081481934 Z" stroke="none" fill="#242424"/>
      </g>
      <g id="Subtraction_16" data-name="Subtraction 16" transform="translate(1364 97)" fill="none">
        <path d="M12,27.961h0A12.77,12.77,0,0,1,3.483,23.7a13.882,13.882,0,0,1,0-18.392A12.769,12.769,0,0,1,12,1.039v26.92Z" stroke="none"/>
        <path d="M 10.99970054626465 26.82710456848145 L 10.99970054626465 2.172681570053101 C 8.413846969604492 2.624580144882202 6.040176391601563 3.949023962020874 4.227470874786377 5.971167087554932 C 2.146210670471191 8.292906761169434 1.000000715255737 11.32179737091064 1.000000715255737 14.49990653991699 C 1.000000715255737 17.67801666259766 2.146210670471191 20.70690727233887 4.227470874786377 23.02862739562988 C 6.040191173553467 25.05077934265137 8.413747787475586 26.37521171569824 10.99970054626465 26.82710456848145 M 11.99970054626465 27.96054649353027 L 11.99862098693848 27.9604663848877 C 8.741220474243164 27.7027473449707 5.716930866241455 26.18830680847168 3.482860803604126 23.69612693786621 C 1.236900806427002 21.19068717956543 7.499695016122132e-07 17.92473793029785 7.499695016122132e-07 14.49990653991699 C 7.499695016122132e-07 11.07507705688477 1.236900806427002 7.809126853942871 3.482860803604126 5.303677082061768 C 5.717220783233643 2.811146974563599 8.741900444030762 1.296676993370056 11.99970054626465 1.039247035980225 L 11.99970054626465 27.9594669342041 L 11.99970054626465 27.96054649353027 Z" stroke="none" fill="#fff"/>
      </g>
      <circle id="Ellipse_17" data-name="Ellipse 17" cx="3" cy="3" r="3" transform="translate(1361 109)" fill="#242424"/>
      <circle id="Ellipse_18" data-name="Ellipse 18" cx="2" cy="2" r="2" transform="translate(1363 104)" fill="#242424"/>
      <g id="Ellipse_19" data-name="Ellipse 19" transform="translate(1366 101)" fill="none" stroke="#242424" stroke-width="1">
        <circle cx="1.5" cy="1.5" r="1.5" stroke="none"/>
        <circle cx="1.5" cy="1.5" r="1" fill="none"/>
      </g>
    </g>
    <rect id="Rectangle_35" data-name="Rectangle 35" width="35" height="50" transform="translate(1344 96)" fill="none"/>
  </g>
</svg>
