<svg xmlns="http://www.w3.org/2000/svg" width="90.501" height="90.02" viewBox="0 0 90.501 90.02">
  <g id="Logo" transform="translate(-156.634 -48.746)">
    <path id="Path_1" data-name="Path 1" d="M4.662,65.772c-25-70,55.161-86.739,71.893-33.516" transform="translate(246.525 121.703) rotate(167)" fill="none" stroke="#ffffff" stroke-width="1"/>
    <path id="Path_2" data-name="Path 2" d="M6.86,49.7C-12.692,1.118,39.9-18.363,54.016,24.555" transform="translate(222.894 119.393) rotate(167)" fill="none" stroke="#ffffff" stroke-width="1"/>
    <circle id="Ellipse_10" data-name="Ellipse 10" cx="13.699" cy="13.699" r="13.699" transform="matrix(0.391, -0.921, 0.921, 0.391, 198.882, 73.966)" fill="#ffffff"/>
    <g id="Path_19" data-name="Path 19" transform="matrix(0.391, -0.921, 0.921, 0.391, 160.472, 107.487)" fill="none">
      <path d="M7.749,0A7.749,7.749,0,1,1,0,7.749,7.749,7.749,0,0,1,7.749,0Z" stroke="none"/>
      <path d="M 7.748959541320801 1 C 4.027569770812988 1 1 4.027569770812988 1 7.748959541320801 C 1 11.47034931182861 4.027569770812988 14.4979190826416 7.748959541320801 14.4979190826416 C 11.47034931182861 14.4979190826416 14.4979190826416 11.47034931182861 14.4979190826416 7.748959541320801 C 14.4979190826416 4.027569770812988 11.47034931182861 1 7.748959541320801 1 M 7.748959541320801 0 C 12.02858924865723 0 15.4979190826416 3.469329833984375 15.4979190826416 7.748959541320801 C 15.4979190826416 12.02858924865723 12.02858924865723 15.4979190826416 7.748959541320801 15.4979190826416 C 3.469329833984375 15.4979190826416 0 12.02858924865723 0 7.748959541320801 C 0 3.469329833984375 3.469329833984375 0 7.748959541320801 0 Z" stroke="none" fill="#ffffff"/>
    </g>
  </g>
</svg>
