<svg xmlns="http://www.w3.org/2000/svg" width="1923" height="828.597" viewBox="0 0 1923 828.597">
  <g id="flip-bezier" transform="translate(3 -2133)">
    <path id="Bezier-cordon" d="M2017.105,828.6h0v0c-9.824-12.285-19.71-25.214-29.382-38.428-11.856-16.2-23.481-32.95-34.553-49.79a1133.134,1133.134,0,0,1-73.21-128.532c-19.808-40.963-38.829-76.715-58.152-109.3-10.508-17.721-21.321-34.836-32.139-50.869-11.326-16.786-23.089-33.028-34.962-48.274C1703,337,1644.2,282.685,1574.944,237.363a648.246,648.246,0,0,0-58.163-34.254,605.443,605.443,0,0,0-73.024-31.729c-14.235-5.148-29.409-10.1-45.1-14.721-16.464-4.848-34.1-9.509-52.433-13.853-19.1-4.527-39.612-8.87-60.972-12.907-22.138-4.185-45.93-8.182-70.717-11.883-25.58-3.819-53.057-7.445-81.668-10.78-29.429-3.429-61-6.658-93.826-9.6-33.68-3.015-69.744-5.82-107.188-8.337-38.31-2.575-79.276-4.929-121.757-7-43.386-2.112-89.659-3.989-137.533-5.579-48.817-1.622-100.8-3-154.513-4.083-54.665-1.107-112.77-1.95-172.7-2.507-60.9-.566-125.533-.853-192.094-.853-18.429,0-37.321.022-56.151.065V0h1920Z" transform="translate(-97.105 2133)" fill="#118ab2" opacity="0.1"/>
    <rect id="Rectangle_80" data-name="Rectangle 80" width="1920" height="24" transform="translate(0 2141)" fill="#fff"/>
    <rect id="Rectangle_81" data-name="Rectangle 81" width="1920" height="16" transform="translate(0 2173)" fill="#fff"/>
    <rect id="Rectangle_82" data-name="Rectangle 82" width="1920" height="8" transform="translate(0 2205)" fill="#fff"/>
    <rect id="Rectangle_83" data-name="Rectangle 83" width="1920" height="4" transform="translate(-3 2237)" fill="#fff"/>
  </g>
</svg>
