<svg xmlns="http://www.w3.org/2000/svg" width="107.052" height="95.033" viewBox="0 0 107.052 95.033">
  <g id="Union_10" data-name="Union 10" transform="matrix(0.966, -0.259, 0.259, 0.966, 1922.192, -491.497)" fill="#fff">
    <path d="M -1916.49951171875 72.50167846679688 L -1988.499633789063 72.50167846679688 L -1988.499633789063 1.500420212745667 L -1960.128540039063 1.500040173530579 C -1961.94921875 2.063262701034546 -1963.53857421875 2.820038557052612 -1964.805786132813 3.734227895736694 C -1967.445434570313 5.637377738952637 -1967.999633789063 7.690765380859375 -1967.999633789063 9.078152656555176 C -1967.999633789063 11.59737777709961 -1966.224853515625 13.88149070739746 -1963.00244140625 15.50972747802734 C -1960.104736328125 16.97397804260254 -1956.286010742188 17.7803897857666 -1952.249633789063 17.7803897857666 C -1948.213623046875 17.7803897857666 -1944.39501953125 16.97397804260254 -1941.4970703125 15.50971508026123 C -1938.274536132813 13.88070297241211 -1936.499877929688 11.59664058685303 -1936.499877929688 9.078152656555176 C -1936.499877929688 7.176265239715576 -1937.517578125 5.39175271987915 -1939.442993164063 3.917540311813354 C -1940.739868164063 2.924545049667358 -1942.4189453125 2.103024482727051 -1944.368408203125 1.500440359115601 L -1916.49951171875 1.500440359115601 L -1916.49951171875 31.72381591796875 L -1916.49951171875 33.22381591796875 L -1914.99951171875 33.22381591796875 L -1913.01318359375 33.22381591796875 L -1911.8095703125 33.22381591796875 L -1911.548828125 32.04885101318359 C -1911.032470703125 29.72284126281738 -1910.20068359375 27.78273963928223 -1909.143310546875 26.43831443786621 C -1908.515014648438 25.63953971862793 -1907.511596679688 24.68735313415527 -1906.299194335938 24.68735313415527 C -1905.67724609375 24.68735313415527 -1905.051635742188 24.93484115600586 -1904.439819335938 25.42295265197754 C -1903.731079101563 25.98847770690918 -1903.049560546875 26.87845230102539 -1902.468994140625 27.99665260314941 C -1901.199096679688 30.44329071044922 -1900.499755859375 33.72861480712891 -1900.499755859375 37.24725341796875 C -1900.499755859375 40.76620101928711 -1901.199096679688 44.05166625976563 -1902.469116210938 46.49845123291016 C -1903.049560546875 47.61635208129883 -1903.731079101563 48.50630187988281 -1904.43994140625 49.07187652587891 C -1905.0517578125 49.56007766723633 -1905.67724609375 49.8076171875 -1906.299194335938 49.8076171875 C -1907.578491210938 49.8076171875 -1908.624877929688 48.75782775878906 -1909.27734375 47.87715148925781 C -1910.3486328125 46.43125152587891 -1911.168090820313 44.3910026550293 -1911.647216796875 41.97695159912109 L -1911.886962890625 40.76897811889648 L -1913.118530273438 40.76897811889648 L -1914.99951171875 40.76897811889648 L -1916.49951171875 40.76897811889648 L -1916.49951171875 42.26897811889648 L -1916.49951171875 72.50167846679688 Z" stroke="none"/>
    <path d="M -1917.99951171875 71.00167083740234 L -1917.99951171875 42.26898193359375 L -1917.99951171875 39.26898193359375 L -1914.99951171875 39.26898193359375 L -1913.118530273438 39.26898193359375 L -1910.655395507813 39.26898193359375 L -1910.175903320313 41.68494033813477 C -1909.745971679688 43.85148239135742 -1908.998779296875 45.73344039916992 -1908.072021484375 46.98419570922852 C -1907.448852539063 47.82523727416992 -1906.802734375 48.30760955810547 -1906.299194335938 48.30760955810547 C -1905.56982421875 48.30760955810547 -1904.588989257813 47.32605361938477 -1903.800415039063 45.80745315551758 C -1902.639282226563 43.57019424438477 -1901.999755859375 40.53012466430664 -1901.999755859375 37.24725341796875 C -1901.999755859375 33.96467971801758 -1902.639282226563 30.92476654052734 -1903.80029296875 28.68779563903809 C -1904.5888671875 27.16883850097656 -1905.569702148438 26.18735313415527 -1906.299194335938 26.18735313415527 C -1907.27197265625 26.18735313415527 -1909.147705078125 28.15356636047363 -1910.08447265625 32.37389755249023 L -1910.606079101563 34.72382354736328 L -1913.01318359375 34.72382354736328 L -1914.99951171875 34.72382354736328 L -1917.99951171875 34.72382354736328 L -1917.99951171875 31.72382354736328 L -1917.99951171875 3.000438451766968 L -1938.185424804688 3.000438451766968 C -1936.138671875 4.686741828918457 -1934.999877929688 6.779414176940918 -1934.999877929688 9.078152656555176 C -1934.999877929688 10.88125324249268 -1935.755981445313 14.28838157653809 -1940.820678710938 16.84849548339844 C -1943.924194335938 18.41672515869141 -1947.983154296875 19.28038215637207 -1952.249633789063 19.28038215637207 C -1956.5166015625 19.28038215637207 -1960.575561523438 18.41670989990234 -1963.678833007813 16.84853935241699 C -1968.743408203125 14.28958129882813 -1969.499633789063 10.88176727294922 -1969.499633789063 9.078152656555176 C -1969.499633789063 6.838664054870605 -1968.372680664063 4.70404052734375 -1966.308837890625 3.000117301940918 L -1986.999633789063 3.000397920608521 L -1986.999633789063 71.00167083740234 L -1917.99951171875 71.00167083740234 M -1914.99951171875 74.00211334228516 L -1914.99951171875 74.00167083740234 L -1989.999633789063 74.00167083740234 L -1989.999633789063 0.0004385707434266806 L -1957.339477539063 -4.286411694920389e-06 L -1957.339111328125 2.349681377410889 C -1960.00537109375 2.865181446075439 -1962.28369140625 3.764281511306763 -1963.928100585938 4.950666904449463 C -1965.610595703125 6.163695812225342 -1966.499633789063 7.59118127822876 -1966.499633789063 9.078152656555176 C -1966.499633789063 11.00203895568848 -1965.017578125 12.8109245300293 -1962.325927734375 14.1709098815918 C -1959.634643554688 15.53090953826904 -1956.05615234375 16.28038215637207 -1952.249633789063 16.28038215637207 C -1948.443603515625 16.28038215637207 -1944.865112304688 15.53090953826904 -1942.173583984375 14.1709098815918 C -1939.482299804688 12.81048107147217 -1937.999877929688 11.00203895568848 -1937.999877929688 9.078152656555176 C -1937.999877929688 6.189452648162842 -1941.39599609375 3.58935284614563 -1946.651611328125 2.4535813331604 L -1946.651611328125 0.0004385707434266806 L -1914.99951171875 0.0004385707434266806 L -1914.99951171875 31.72382354736328 L -1913.01318359375 31.72382354736328 C -1911.862182617188 26.53826713562012 -1909.2265625 23.18735313415527 -1906.299194335938 23.18735313415527 C -1904.349365234375 23.18735313415527 -1902.5166015625 24.64946746826172 -1901.1376953125 27.30550956726074 C -1899.759399414063 29.96110916137695 -1898.999755859375 33.49185180664063 -1898.999755859375 37.24725341796875 C -1898.999755859375 41.00310897827148 -1899.759399414063 44.53385162353516 -1901.1376953125 47.189453125 C -1902.5166015625 49.84505462646484 -1904.349365234375 51.30760955810547 -1906.299194335938 51.30760955810547 C -1907.806274414063 51.30760955810547 -1909.252563476563 50.43025207519531 -1910.482543945313 48.77011108398438 C -1911.684936523438 47.14726638793945 -1912.596557617188 44.89882278442383 -1913.118530273438 42.26898193359375 L -1914.99951171875 42.26898193359375 L -1914.99951171875 74.00167083740234 L -1914.99951171875 74.00211334228516 Z" stroke="none" fill="#e6f3f7"/>
  </g>
</svg>
