<svg xmlns="http://www.w3.org/2000/svg" width="114.684" height="101.196" viewBox="0 0 114.684 101.196">
  <path id="Union_7" data-name="Union 7" d="M-1908.406,81H-1990V0h35.531V2.572a18.251,18.251,0,0,0-7.168,2.847c-1.83,1.328-2.8,2.89-2.8,4.518,0,2.106,1.613,4.086,4.541,5.574a24.748,24.748,0,0,0,10.962,2.309,24.748,24.748,0,0,0,10.962-2.309c2.928-1.489,4.541-3.469,4.541-5.574,0-3.162-3.695-6.008-9.412-7.251V0h34.435V34.725h2.161c1.252-5.676,4.12-9.344,7.3-9.344,2.121,0,4.115,1.6,5.615,4.508A24.269,24.269,0,0,1-1891,40.771a24.27,24.27,0,0,1-2.326,10.883c-1.5,2.907-3.494,4.508-5.615,4.508-1.64,0-3.213-.96-4.551-2.778a17.975,17.975,0,0,1-2.868-7.116h-2.046V81h0Z" transform="translate(-1824.312 526.578) rotate(167)" fill="#118ab2" opacity="0.1"/>
</svg>
