<svg xmlns="http://www.w3.org/2000/svg" width="360.499" height="179.065">
  <g id="Group_36" data-name="Group 36" transform="translate(0 -2009.001)">
    <path id="Subtraction_26" data-name="Subtraction 26" d="M-3619.5,172.065h0v0c-.876-.753-1.777-1.512-2.677-2.257a201.943,201.943,0,0,0-17.466-12.907,229.369,229.369,0,0,0-20.258-11.882c-7.328-3.819-15.2-7.446-23.394-10.78-8.431-3.43-17.474-6.659-26.877-9.6-9.65-3.015-19.981-5.82-30.7-8.336-10.974-2.575-22.709-4.929-34.879-7-12.422-2.111-25.677-3.989-39.4-5.58-13.981-1.622-28.873-3-44.261-4.082-15.666-1.107-32.311-1.951-49.472-2.508-17.466-.566-35.979-.853-55.027-.853-5.3,0-10.715.022-16.085.066V27h360.5Z" transform="translate(3980 2016)" fill="#118ab2" opacity="0.1"/>
  </g>
</svg>
