<svg xmlns="http://www.w3.org/2000/svg" xmlns:xlink="http://www.w3.org/1999/xlink" width="1920" height="1080">
  <defs>
    <linearGradient id="linear-gradient" x1="0.826" y1="0.887" x2="-0.107" y2="0.224" gradientUnits="objectBoundingBox">
      <stop offset="0" stop-color="#073b4c"/>
      <stop offset="1" stop-color="#118ab2"/>
    </linearGradient>
  </defs>
  <g id="Top-background" transform="translate(0 0)">
    <rect id="Rectangle_36" data-name="Rectangle 36" width="960" height="1080" transform="translate(960 0)" fill="url(#linear-gradient)"/>
    <g id="Group_5" data-name="Group 5" transform="translate(894 813)" opacity="0.24" style="isolation: isolate">
      <rect id="Rectangle_37" data-name="Rectangle 37" width="1026" height="75" transform="translate(0 192)"/>
      <rect id="Rectangle_38" data-name="Rectangle 38" width="1026" height="32" transform="translate(0 144)"/>
      <rect id="Rectangle_39" data-name="Rectangle 39" width="1026" height="24" transform="translate(0 96)"/>
      <rect id="Rectangle_40" data-name="Rectangle 40" width="1026" height="16" transform="translate(0 48)"/>
      <rect id="Rectangle_41" data-name="Rectangle 41" width="1026" height="8"/>
    </g>
    <path id="Subtraction_18" data-name="Subtraction 18" d="M1032.055,0H605.944c-10.218,2.255-20.476,4.7-30.49,7.256-25.411,6.495-50.727,14.109-75.247,22.631-24.288,8.442-48.375,17.976-71.592,28.34-23.048,10.289-45.768,21.63-67.526,33.71-21.657,12.022-42.87,25.057-63.05,38.742-20.126,13.649-39.694,28.263-58.161,43.437s-36.246,31.25-52.86,47.793c-16.653,16.581-32.515,34.012-47.147,51.809a667.088,667.088,0,0,0-41.024,55.49A629.994,629.994,0,0,0,64.36,388.038,599.2,599.2,0,0,0,36.82,449.87a576.258,576.258,0,0,0-20.181,64.5,560.735,560.735,0,0,0-3.707,255.4,571.345,571.345,0,0,0,15.743,57.394,588.787,588.787,0,0,0,21.554,55.426c8.056,17.974,17.169,35.883,27.086,53.228,9.851,17.231,20.73,34.322,32.334,50.8,11.547,16.4,24.1,32.592,37.3,48.139,13.16,15.493,27.288,30.717,41.992,45.25h1260.11c14.715-14.544,28.842-29.768,41.992-45.25,13.206-15.547,25.757-31.743,37.3-48.139,11.611-16.487,22.49-33.579,32.334-50.8,9.917-17.347,19.03-35.255,27.085-53.228a588.552,588.552,0,0,0,21.554-55.426,571.575,571.575,0,0,0,15.744-57.394,560.752,560.752,0,0,0-3.709-255.4,576.093,576.093,0,0,0-20.181-64.5,599.06,599.06,0,0,0-27.54-61.833,629.925,629.925,0,0,0-34.488-58.829,667.074,667.074,0,0,0-41.024-55.49c-14.626-17.791-30.489-35.222-47.147-51.809-16.611-16.54-34.4-32.62-52.86-47.793s-38.033-29.787-58.161-43.437c-20.185-13.689-41.4-26.724-63.049-38.742-21.759-12.08-44.478-23.422-67.526-33.71-23.216-10.363-47.3-19.9-71.593-28.34-24.517-8.522-49.833-16.136-75.246-22.631-10.015-2.56-20.273-5-30.491-7.256h0Z" transform="translate(1751.999 1080) rotate(180)" fill="#fff"/>
    <g id="Group_6" data-name="Group 6" transform="translate(0 0)" opacity="0.06" style="isolation: isolate">
      <rect id="Rectangle_38-2" data-name="Rectangle 38" width="1920" height="40" transform="translate(0 821)" fill="#073b4c"/>
      <rect id="Rectangle_39-2" data-name="Rectangle 39" width="1920" height="32" transform="translate(0 877)" fill="#073b4c"/>
      <rect id="Rectangle_40-2" data-name="Rectangle 40" width="1920" height="24" transform="translate(0 933)" fill="#073b4c"/>
      <rect id="Rectangle_41-2" data-name="Rectangle 41" width="1920" height="16" transform="translate(0 989)" fill="#073b4c"/>
      <rect id="Rectangle_45" data-name="Rectangle 45" width="1920" height="813" fill="#073b4c"/>
    </g>
  </g>
</svg>
